/* XPM */
static char *f767fd3668314f5fc034b613b9b999d6v2JYOdsNRlUPeTyh[] = {
/* columns rows colors chars-per-pixel */
"64 64 16 1 ",
"  c #B47B41",
". c #B57B41",
"X c #B67C41",
"o c #B77D42",
"O c #B97E42",
"+ c #BC8044",
"@ c #BD8144",
"# c #BE8144",
"$ c #BE8244",
"% c #BF8245",
"& c #C18345",
"* c #C28446",
"= c #C38546",
"- c #C48647",
"; c #C78847",
": c #C98948",
/* pixels */
"                                                                ",
"-------------------------------  -------------------------------",
"-------------------------------  -------------------------------",
"-------------------------------  -------------------------------",
"-------------------------------  -------------------------------",
"-------------------------------  -------------------------------",
"-------------------------------  -------------------------------",
"-------------------------------  -------------------------------",
"-------------------------------  -------------------------------",
"-------------------------------  -------------------------------",
"-------------------------------  -------------------------------",
"-------------------------------  -------------------------------",
"-------------------------------  ----------==-------------------",
"-------------------------------  ---------@  &------------------",
"-------------------------------  -------=O    @-----------------",
"                                                                ",
"                                                                ",
" :::::::::::::::::::::::::::::::::::::::::::::::::::::::::::::: ",
" :::::::::::::::::::::::::::::::::::::::::::::::::::::::::::::: ",
" =::::::::::::::::::::::::::::::::::::::::::::::::::::::::::::: ",
" X;:::::::::::::::::::::::::::::::::::::::::::::::::::::::::::: ",
"  @:::::::::::::::::::::::::::::::::::::::::::::::::::::::::::: ",
"   =::::::::::::::::::::::::::::::::::::::::::::::::::::::::::: ",
"   ;::::::::::::::::::::::::::::::::::::::::::::::::::::::::::: ",
"  =:::::::::::::::::::::::::::::::::::::::::::::::::::::::::::: ",
" @::::::::::::::::::::::::::::::::::::::::::::::::::::::::::::: ",
" :::::::::::::::::::::::::::::::::::::::::::::::::::::::::::::: ",
" :::::::::::::::::::::::::::::::::::::::::::::::::::::::::::::: ",
" :::::::::::::::::::::::::::::::::::::::::::::::::::::::::::::: ",
" :::::::::::::::::::::::::::::::::::::::::::::::::::::::::::::: ",
" :::::::::::::::::::::::::::::::::::::::::::::::::::::::::::::: ",
"                                                                ",
"                                                                ",
"-------------------------------  -------------------------------",
"-------------------------------  -------------------------------",
"-------------------------------  -------------------------------",
"-------------------------------  -------------------------------",
"-------------------------------  -------------------------------",
"------------------------------@  -------------------------------",
"-----------------------------@   -------------------------------",
"----------------------------=    -------------------------------",
"----------------------------@    -------------------------------",
"-----------------------------O   -------------------------------",
"-----------------------------=X  -------------------------------",
"------------------------------=  -------------------------------",
"-------------------------------  -------------------------------",
"-------------------------------  -------------------------------",
"                                                                ",
"                                                                ",
" :::::::::::::::::::::::::::::::::::::::::::::::::::::::::::::: ",
" :::::::::::::::::::::::::::::::::::::::::::::::::::::::::::::: ",
" :::::::::::::::::::::::::::::::::::::::::::::::::::::::::::::: ",
" :::::::::::::::::::::::::::::::::::::::::::::::::::::::::::::: ",
" :::::::::::::::::::::::::::::::::::::::::::::::::::::::::::::: ",
" :::::::::::::::::::::::::::::::::::::::::::::::::::::::::::::: ",
" :::::::::::::::::::::::::::::::::::::::::::::::::::::::::::::: ",
" :::::::::::::::::::::::::::::::::::::::::::::::::::::::::::::: ",
" :::::::::::::::::::::::::::::::::::::::::::::::::::::::::::::: ",
" :::::::::::::::::::::::::::::::::::::::::::::::::::::::::::::: ",
" :::::::::::::::::::::::::::::::::::::::::::::::::::::::::::::: ",
" :::::::::::::::::::::::::::::::::::::::::::::::::::::::::::::: ",
" :::::::::::::::::::::::::::::::::::::::::::::::::::::::::::::: ",
" :::::::::::::::::::::::::::::::::::::::::::::::::::::::::::::: ",
"                                                                "
};
